<?xml version="1.0" encoding="UTF-8" standalone="no"?>
<!DOCTYPE svg PUBLIC "-//W3C//DTD SVG 1.1//EN"
 "http://www.w3.org/Graphics/SVG/1.1/DTD/svg11.dtd">
<!-- Generated by graphviz version 2.40.1 (20161225.0304)
 -->
<!-- Title: dependencies Pages: 1 -->
<svg width="735pt" height="211pt"
 viewBox="0.00 0.00 735.00 211.00" xmlns="http://www.w3.org/2000/svg" xmlns:xlink="http://www.w3.org/1999/xlink">
<g id="graph0" class="graph" transform="scale(1 1) rotate(0) translate(4 207)">
<title>dependencies</title>
<polygon fill="#ffffff" stroke="transparent" points="-4,4 -4,-207 731,-207 731,4 -4,4"/>
<text text-anchor="start" x="342.5091" y="-42.4" font-family="sans-serif" font-weight="bold" font-size="14.00" fill="#000000">Legend</text>
<polygon fill="#ffffb3" stroke="transparent" points="129.5,-10 129.5,-30 149.5,-30 149.5,-10 129.5,-10"/>
<text text-anchor="start" x="153.129" y="-15.4" font-family="sans-serif" font-size="14.00" fill="#000000"> &#160;Declarations</text>
<polygon fill="#8dd3c7" stroke="transparent" points="242.5,-10 242.5,-30 262.5,-30 262.5,-10 242.5,-10"/>
<text text-anchor="start" x="266.2251" y="-15.4" font-family="sans-serif" font-size="14.00" fill="#000000"> &#160;Module</text>
<polygon fill="#80b1d3" stroke="transparent" points="328.5,-10 328.5,-30 348.5,-30 348.5,-10 328.5,-10"/>
<text text-anchor="start" x="352.2812" y="-15.4" font-family="sans-serif" font-size="14.00" fill="#000000"> &#160;Bootstrap</text>
<polygon fill="#fdb462" stroke="transparent" points="425.5,-10 425.5,-30 445.5,-30 445.5,-10 425.5,-10"/>
<text text-anchor="start" x="449.1732" y="-15.4" font-family="sans-serif" font-size="14.00" fill="#000000"> &#160;Providers</text>
<polygon fill="#fb8072" stroke="transparent" points="521.5,-10 521.5,-30 541.5,-30 541.5,-10 521.5,-10"/>
<text text-anchor="start" x="545.2258" y="-15.4" font-family="sans-serif" font-size="14.00" fill="#000000"> &#160;Exports</text>
<g id="clust1" class="cluster">
<title>cluster_TicketModule</title>
<polygon fill="none" stroke="#000000" stroke-dasharray="1,5" points="8,-70 8,-195 719,-195 719,-70 8,-70"/>
</g>
<g id="clust2" class="cluster">
<title>cluster_TicketModule_declarations</title>
<polygon fill="none" stroke="#000000" points="180,-78 180,-130 711,-130 711,-78 180,-78"/>
</g>
<g id="clust6" class="cluster">
<title>cluster_TicketModule_imports</title>
<polygon fill="none" stroke="#000000" points="16,-78 16,-130 172,-130 172,-78 16,-78"/>
</g>
<!-- TicketListComponent -->
<g id="node1" class="node">
<title>TicketListComponent</title>
<polygon fill="#ffffb3" stroke="#000000" points="703.3739,-122 564.6261,-122 564.6261,-86 703.3739,-86 703.3739,-122"/>
<text text-anchor="middle" x="634" y="-99.8" font-family="Times,serif" font-size="14.00" fill="#000000">TicketListComponent</text>
</g>
<!-- TicketModule -->
<g id="node4" class="node">
<title>TicketModule</title>
<polygon fill="#8dd3c7" stroke="#000000" points="407.8133,-187 404.8133,-191 383.8133,-191 380.8133,-187 312.1867,-187 312.1867,-151 407.8133,-151 407.8133,-187"/>
<text text-anchor="middle" x="360" y="-164.8" font-family="Times,serif" font-size="14.00" fill="#000000">TicketModule</text>
</g>
<!-- TicketListComponent&#45;&gt;TicketModule -->
<g id="edge1" class="edge">
<title>TicketListComponent&#45;&gt;TicketModule</title>
<path fill="none" stroke="#000000" d="M634,-122.1061C634,-141.3391 634,-169 634,-169 634,-169 417.7272,-169 417.7272,-169"/>
<polygon fill="#000000" stroke="#000000" points="417.7272,-165.5001 407.7272,-169 417.7271,-172.5001 417.7272,-165.5001"/>
</g>
<!-- TicketRegistrationComponent -->
<g id="node2" class="node">
<title>TicketRegistrationComponent</title>
<polygon fill="#ffffb3" stroke="#000000" points="546.5294,-122 361.4706,-122 361.4706,-86 546.5294,-86 546.5294,-122"/>
<text text-anchor="middle" x="454" y="-99.8" font-family="Times,serif" font-size="14.00" fill="#000000">TicketRegistrationComponent</text>
</g>
<!-- TicketRegistrationComponent&#45;&gt;TicketModule -->
<g id="edge2" class="edge">
<title>TicketRegistrationComponent&#45;&gt;TicketModule</title>
<path fill="none" stroke="#000000" d="M384.446,-122.1061C384.446,-122.1061 384.446,-140.991 384.446,-140.991"/>
<polygon fill="#000000" stroke="#000000" points="380.9461,-140.9909 384.446,-150.991 387.9461,-140.991 380.9461,-140.9909"/>
</g>
<!-- TicketSearchComponent -->
<g id="node3" class="node">
<title>TicketSearchComponent</title>
<polygon fill="#ffffb3" stroke="#000000" points="343.6825,-122 188.3175,-122 188.3175,-86 343.6825,-86 343.6825,-122"/>
<text text-anchor="middle" x="266" y="-99.8" font-family="Times,serif" font-size="14.00" fill="#000000">TicketSearchComponent</text>
</g>
<!-- TicketSearchComponent&#45;&gt;TicketModule -->
<g id="edge3" class="edge">
<title>TicketSearchComponent&#45;&gt;TicketModule</title>
<path fill="none" stroke="#000000" d="M327.9674,-122.1061C327.9674,-122.1061 327.9674,-140.991 327.9674,-140.991"/>
<polygon fill="#000000" stroke="#000000" points="324.4675,-140.9909 327.9674,-150.991 331.4675,-140.991 324.4675,-140.9909"/>
</g>
<!-- TicketRoutingModule -->
<g id="node5" class="node">
<title>TicketRoutingModule</title>
<polygon fill="#8dd3c7" stroke="#000000" points="164.4313,-122 161.4313,-126 140.4313,-126 137.4313,-122 23.5687,-122 23.5687,-86 164.4313,-86 164.4313,-122"/>
<text text-anchor="middle" x="94" y="-99.8" font-family="Times,serif" font-size="14.00" fill="#000000">TicketRoutingModule</text>
</g>
<!-- TicketRoutingModule&#45;&gt;TicketModule -->
<g id="edge4" class="edge">
<title>TicketRoutingModule&#45;&gt;TicketModule</title>
<path fill="none" stroke="#000000" d="M94,-122.1061C94,-141.3391 94,-169 94,-169 94,-169 302.1373,-169 302.1373,-169"/>
<polygon fill="#000000" stroke="#000000" points="302.1374,-172.5001 312.1373,-169 302.1373,-165.5001 302.1374,-172.5001"/>
</g>
</g>
</svg>
