<?xml version="1.0" encoding="UTF-8" standalone="no"?>
<!DOCTYPE svg PUBLIC "-//W3C//DTD SVG 1.1//EN"
 "http://www.w3.org/Graphics/SVG/1.1/DTD/svg11.dtd">
<!-- Generated by graphviz version 2.40.1 (20161225.0304)
 -->
<!-- Title: dependencies Pages: 1 -->
<svg width="1150pt" height="211pt"
 viewBox="0.00 0.00 1150.00 211.00" xmlns="http://www.w3.org/2000/svg" xmlns:xlink="http://www.w3.org/1999/xlink">
<g id="graph0" class="graph" transform="scale(1 1) rotate(0) translate(4 207)">
<title>dependencies</title>
<polygon fill="#ffffff" stroke="transparent" points="-4,4 -4,-207 1146,-207 1146,4 -4,4"/>
<text text-anchor="start" x="550.0091" y="-42.4" font-family="sans-serif" font-weight="bold" font-size="14.00" fill="#000000">Legend</text>
<polygon fill="#ffffb3" stroke="transparent" points="337,-10 337,-30 357,-30 357,-10 337,-10"/>
<text text-anchor="start" x="360.629" y="-15.4" font-family="sans-serif" font-size="14.00" fill="#000000"> &#160;Declarations</text>
<polygon fill="#8dd3c7" stroke="transparent" points="450,-10 450,-30 470,-30 470,-10 450,-10"/>
<text text-anchor="start" x="473.7251" y="-15.4" font-family="sans-serif" font-size="14.00" fill="#000000"> &#160;Module</text>
<polygon fill="#80b1d3" stroke="transparent" points="536,-10 536,-30 556,-30 556,-10 536,-10"/>
<text text-anchor="start" x="559.7812" y="-15.4" font-family="sans-serif" font-size="14.00" fill="#000000"> &#160;Bootstrap</text>
<polygon fill="#fdb462" stroke="transparent" points="633,-10 633,-30 653,-30 653,-10 633,-10"/>
<text text-anchor="start" x="656.6732" y="-15.4" font-family="sans-serif" font-size="14.00" fill="#000000"> &#160;Providers</text>
<polygon fill="#fb8072" stroke="transparent" points="729,-10 729,-30 749,-30 749,-10 729,-10"/>
<text text-anchor="start" x="752.7258" y="-15.4" font-family="sans-serif" font-size="14.00" fill="#000000"> &#160;Exports</text>
<g id="clust1" class="cluster">
<title>cluster_VehicleModule</title>
<polygon fill="none" stroke="#000000" stroke-dasharray="1,5" points="8,-70 8,-195 1134,-195 1134,-70 8,-70"/>
</g>
<g id="clust2" class="cluster">
<title>cluster_VehicleModule_declarations</title>
<polygon fill="none" stroke="#000000" points="352,-78 352,-130 1126,-130 1126,-78 352,-78"/>
</g>
<g id="clust7" class="cluster">
<title>cluster_VehicleModule_imports</title>
<polygon fill="none" stroke="#000000" points="180,-78 180,-130 344,-130 344,-78 180,-78"/>
</g>
<g id="clust10" class="cluster">
<title>cluster_VehicleModule_providers</title>
<polygon fill="none" stroke="#000000" points="16,-78 16,-130 172,-130 172,-78 16,-78"/>
</g>
<!-- VehicleFormCompletComponent -->
<g id="node1" class="node">
<title>VehicleFormCompletComponent</title>
<polygon fill="#ffffb3" stroke="#000000" points="1117.9212,-122 914.0788,-122 914.0788,-86 1117.9212,-86 1117.9212,-122"/>
<text text-anchor="middle" x="1016" y="-99.8" font-family="Times,serif" font-size="14.00" fill="#000000">VehicleFormCompletComponent</text>
</g>
<!-- VehicleModule -->
<g id="node5" class="node">
<title>VehicleModule</title>
<polygon fill="#8dd3c7" stroke="#000000" points="569.5814,-187 566.5814,-191 545.5814,-191 542.5814,-187 466.4186,-187 466.4186,-151 569.5814,-151 569.5814,-187"/>
<text text-anchor="middle" x="518" y="-164.8" font-family="Times,serif" font-size="14.00" fill="#000000">VehicleModule</text>
</g>
<!-- VehicleFormCompletComponent&#45;&gt;VehicleModule -->
<g id="edge1" class="edge">
<title>VehicleFormCompletComponent&#45;&gt;VehicleModule</title>
<path fill="none" stroke="#000000" d="M1016,-122.2843C1016,-143.3211 1016,-175 1016,-175 1016,-175 579.8854,-175 579.8854,-175"/>
<polygon fill="#000000" stroke="#000000" points="579.8854,-171.5001 569.8854,-175 579.8854,-178.5001 579.8854,-171.5001"/>
</g>
<!-- VehicleFormSimpleComponent -->
<g id="node2" class="node">
<title>VehicleFormSimpleComponent</title>
<polygon fill="#ffffb3" stroke="#000000" points="896.3668,-122 701.6332,-122 701.6332,-86 896.3668,-86 896.3668,-122"/>
<text text-anchor="middle" x="799" y="-99.8" font-family="Times,serif" font-size="14.00" fill="#000000">VehicleFormSimpleComponent</text>
</g>
<!-- VehicleFormSimpleComponent&#45;&gt;VehicleModule -->
<g id="edge2" class="edge">
<title>VehicleFormSimpleComponent&#45;&gt;VehicleModule</title>
<path fill="none" stroke="#000000" d="M799,-122.0225C799,-139.3734 799,-163 799,-163 799,-163 579.8672,-163 579.8672,-163"/>
<polygon fill="#000000" stroke="#000000" points="579.8672,-159.5001 569.8672,-163 579.8672,-166.5001 579.8672,-159.5001"/>
</g>
<!-- VehicleHomeComponent -->
<g id="node3" class="node">
<title>VehicleHomeComponent</title>
<polygon fill="#ffffb3" stroke="#000000" points="683.5758,-122 524.4242,-122 524.4242,-86 683.5758,-86 683.5758,-122"/>
<text text-anchor="middle" x="604" y="-99.8" font-family="Times,serif" font-size="14.00" fill="#000000">VehicleHomeComponent</text>
</g>
<!-- VehicleHomeComponent&#45;&gt;VehicleModule -->
<g id="edge3" class="edge">
<title>VehicleHomeComponent&#45;&gt;VehicleModule</title>
<path fill="none" stroke="#000000" d="M547.0014,-122.1061C547.0014,-122.1061 547.0014,-140.991 547.0014,-140.991"/>
<polygon fill="#000000" stroke="#000000" points="543.5015,-140.9909 547.0014,-150.991 550.5015,-140.991 543.5015,-140.9909"/>
</g>
<!-- VehicleListComponent -->
<g id="node4" class="node">
<title>VehicleListComponent</title>
<polygon fill="#ffffb3" stroke="#000000" points="506.1428,-122 359.8572,-122 359.8572,-86 506.1428,-86 506.1428,-122"/>
<text text-anchor="middle" x="433" y="-99.8" font-family="Times,serif" font-size="14.00" fill="#000000">VehicleListComponent</text>
</g>
<!-- VehicleListComponent&#45;&gt;VehicleModule -->
<g id="edge4" class="edge">
<title>VehicleListComponent&#45;&gt;VehicleModule</title>
<path fill="none" stroke="#000000" d="M486.3903,-122.1061C486.3903,-122.1061 486.3903,-140.991 486.3903,-140.991"/>
<polygon fill="#000000" stroke="#000000" points="482.8903,-140.9909 486.3903,-150.991 489.8903,-140.991 482.8903,-140.9909"/>
</g>
<!-- VehicleRoutingModule -->
<g id="node6" class="node">
<title>VehicleRoutingModule</title>
<polygon fill="#8dd3c7" stroke="#000000" points="336.1993,-122 333.1993,-126 312.1993,-126 309.1993,-122 187.8007,-122 187.8007,-86 336.1993,-86 336.1993,-122"/>
<text text-anchor="middle" x="262" y="-99.8" font-family="Times,serif" font-size="14.00" fill="#000000">VehicleRoutingModule</text>
</g>
<!-- VehicleRoutingModule&#45;&gt;VehicleModule -->
<g id="edge5" class="edge">
<title>VehicleRoutingModule&#45;&gt;VehicleModule</title>
<path fill="none" stroke="#000000" d="M262,-122.0225C262,-139.3734 262,-163 262,-163 262,-163 456.1946,-163 456.1946,-163"/>
<polygon fill="#000000" stroke="#000000" points="456.1946,-166.5001 466.1946,-163 456.1945,-159.5001 456.1946,-166.5001"/>
</g>
<!-- VehicleService -->
<g id="node7" class="node">
<title>VehicleService</title>
<ellipse fill="#fdb462" stroke="#000000" cx="94" cy="-104" rx="70.0384" ry="18"/>
<text text-anchor="middle" x="94" y="-99.8" font-family="Times,serif" font-size="14.00" fill="#000000">VehicleService</text>
</g>
<!-- VehicleService&#45;&gt;VehicleModule -->
<g id="edge6" class="edge">
<title>VehicleService&#45;&gt;VehicleModule</title>
<path fill="none" stroke="#000000" d="M94,-122.2843C94,-143.3211 94,-175 94,-175 94,-175 456.4332,-175 456.4332,-175"/>
<polygon fill="#000000" stroke="#000000" points="456.4332,-178.5001 466.4332,-175 456.4331,-171.5001 456.4332,-178.5001"/>
</g>
</g>
</svg>
