<?xml version="1.0" encoding="UTF-8" standalone="no"?>
<!DOCTYPE svg PUBLIC "-//W3C//DTD SVG 1.1//EN"
 "http://www.w3.org/Graphics/SVG/1.1/DTD/svg11.dtd">
<!-- Generated by graphviz version 2.40.1 (20161225.0304)
 -->
<!-- Title: dependencies Pages: 1 -->
<svg width="504pt" height="211pt"
 viewBox="0.00 0.00 504.00 211.00" xmlns="http://www.w3.org/2000/svg" xmlns:xlink="http://www.w3.org/1999/xlink">
<g id="graph0" class="graph" transform="scale(1 1) rotate(0) translate(4 207)">
<title>dependencies</title>
<polygon fill="#ffffff" stroke="transparent" points="-4,4 -4,-207 500,-207 500,4 -4,4"/>
<text text-anchor="start" x="227.0091" y="-42.4" font-family="sans-serif" font-weight="bold" font-size="14.00" fill="#000000">Legend</text>
<polygon fill="#ffffb3" stroke="transparent" points="14,-10 14,-30 34,-30 34,-10 14,-10"/>
<text text-anchor="start" x="37.629" y="-15.4" font-family="sans-serif" font-size="14.00" fill="#000000"> &#160;Declarations</text>
<polygon fill="#8dd3c7" stroke="transparent" points="127,-10 127,-30 147,-30 147,-10 127,-10"/>
<text text-anchor="start" x="150.7251" y="-15.4" font-family="sans-serif" font-size="14.00" fill="#000000"> &#160;Module</text>
<polygon fill="#80b1d3" stroke="transparent" points="213,-10 213,-30 233,-30 233,-10 213,-10"/>
<text text-anchor="start" x="236.7812" y="-15.4" font-family="sans-serif" font-size="14.00" fill="#000000"> &#160;Bootstrap</text>
<polygon fill="#fdb462" stroke="transparent" points="310,-10 310,-30 330,-30 330,-10 310,-10"/>
<text text-anchor="start" x="333.6732" y="-15.4" font-family="sans-serif" font-size="14.00" fill="#000000"> &#160;Providers</text>
<polygon fill="#fb8072" stroke="transparent" points="406,-10 406,-30 426,-30 426,-10 406,-10"/>
<text text-anchor="start" x="429.7258" y="-15.4" font-family="sans-serif" font-size="14.00" fill="#000000"> &#160;Exports</text>
<g id="clust1" class="cluster">
<title>cluster_OwnerModule</title>
<polygon fill="none" stroke="#000000" stroke-dasharray="1,5" points="55,-70 55,-195 441,-195 441,-70 55,-70"/>
</g>
<g id="clust2" class="cluster">
<title>cluster_OwnerModule_declarations</title>
<polygon fill="none" stroke="#000000" points="229,-78 229,-130 433,-130 433,-78 229,-78"/>
</g>
<g id="clust4" class="cluster">
<title>cluster_OwnerModule_imports</title>
<polygon fill="none" stroke="#000000" points="63,-78 63,-130 221,-130 221,-78 63,-78"/>
</g>
<!-- OwnerRegistrarionComponent -->
<g id="node1" class="node">
<title>OwnerRegistrarionComponent</title>
<polygon fill="#ffffb3" stroke="#000000" points="425.1246,-122 236.8754,-122 236.8754,-86 425.1246,-86 425.1246,-122"/>
<text text-anchor="middle" x="331" y="-99.8" font-family="Times,serif" font-size="14.00" fill="#000000">OwnerRegistrarionComponent</text>
</g>
<!-- OwnerModule -->
<g id="node2" class="node">
<title>OwnerModule</title>
<polygon fill="#8dd3c7" stroke="#000000" points="284.6389,-187 281.6389,-191 260.6389,-191 257.6389,-187 187.3611,-187 187.3611,-151 284.6389,-151 284.6389,-187"/>
<text text-anchor="middle" x="236" y="-164.8" font-family="Times,serif" font-size="14.00" fill="#000000">OwnerModule</text>
</g>
<!-- OwnerRegistrarionComponent&#45;&gt;OwnerModule -->
<g id="edge1" class="edge">
<title>OwnerRegistrarionComponent&#45;&gt;OwnerModule</title>
<path fill="none" stroke="#000000" d="M260.7535,-122.1061C260.7535,-122.1061 260.7535,-140.991 260.7535,-140.991"/>
<polygon fill="#000000" stroke="#000000" points="257.2536,-140.9909 260.7535,-150.991 264.2536,-140.991 257.2536,-140.9909"/>
</g>
<!-- OwnerRoutingModule -->
<g id="node3" class="node">
<title>OwnerRoutingModule</title>
<polygon fill="#8dd3c7" stroke="#000000" points="213.2562,-122 210.2562,-126 189.2562,-126 186.2562,-122 70.7438,-122 70.7438,-86 213.2562,-86 213.2562,-122"/>
<text text-anchor="middle" x="142" y="-99.8" font-family="Times,serif" font-size="14.00" fill="#000000">OwnerRoutingModule</text>
</g>
<!-- OwnerRoutingModule&#45;&gt;OwnerModule -->
<g id="edge2" class="edge">
<title>OwnerRoutingModule&#45;&gt;OwnerModule</title>
<path fill="none" stroke="#000000" d="M200.2795,-122.1061C200.2795,-122.1061 200.2795,-140.991 200.2795,-140.991"/>
<polygon fill="#000000" stroke="#000000" points="196.7795,-140.9909 200.2795,-150.991 203.7795,-140.991 196.7795,-140.9909"/>
</g>
</g>
</svg>
